<svg width="32" height="32" viewBox="0 0 32 32" fill="none" xmlns="http://www.w3.org/2000/svg">
  <!-- Background -->
  <rect width="32" height="32" rx="6" fill="#facc15"/>
  
  <!-- Clock -->
  <circle cx="16" cy="16" r="12" fill="#000000"/>
  <circle cx="16" cy="16" r="10" fill="#facc15"/>
  <circle cx="16" cy="16" r="9" fill="#000000"/>
  
  <!-- Center dot -->
  <circle cx="16" cy="16" r="1.5" fill="#facc15"/>
  
  <!-- Hour hand -->
  <rect x="15.5" y="10" width="1" height="6" rx="0.5" fill="#facc15" transform="rotate(-30 16 16)"/>
  
  <!-- Minute hand -->
  <rect x="15.5" y="8" width="0.8" height="8" rx="0.4" fill="#facc15" transform="rotate(45 16 16)"/>
  
  <!-- 12, 3, 6, 9 markers -->
  <rect x="15.5" y="6" width="1" height="2" rx="0.5" fill="#facc15"/>
  <rect x="15.5" y="6" width="1" height="2" rx="0.5" fill="#facc15" transform="rotate(90 16 16)"/>
  <rect x="15.5" y="6" width="1" height="2" rx="0.5" fill="#facc15" transform="rotate(180 16 16)"/>
  <rect x="15.5" y="6" width="1" height="2" rx="0.5" fill="#facc15" transform="rotate(270 16 16)"/>
</svg>
